<svg width="32" height="32" viewBox="0 0 32 32" fill="none" xmlns="http://www.w3.org/2000/svg">
  <circle cx="16" cy="16" r="16" fill="#fbe4f2"/>
  <path d="M24 12.5C23.3 12.8 22.6 13 21.8 13.1C22.6 12.6 23.2 11.8 23.5 10.9C22.8 11.3 22 11.6 21.2 11.7C20.6 11 19.7 10.5 18.7 10.5C16.7 10.5 15.2 12.2 15.7 14.1C13 14 10.7 12.8 9.1 10.9C8.4 12.1 9 13.6 10.2 14.2C9.6 14.2 9 14 8.5 13.7C8.5 15.3 9.7 16.7 11.3 17C10.7 17.2 10 17.2 9.4 17.1C10 18.4 11.3 19.3 12.8 19.3C11.6 20.1 10.1 20.5 8.5 20.3C10 21.2 11.8 21.7 13.7 21.7C18.7 21.7 21.7 17.2 21.7 13.3C21.7 13.1 21.7 12.9 21.7 12.7C22.4 12.3 23.1 11.8 23.7 11.2C23.1 11.5 22.5 11.7 21.8 12.5Z" fill="#e6007a"/>
</svg> 